<svg id="Layer_1" enable-background="new 0 0 512 512" height="512" viewBox="0 0 512 512" width="512" xmlns="http://www.w3.org/2000/svg"><g><g><g><path d="m483.305 104.174c-8.66 0-16.105 5.762-19.393 14.018-3.288-8.256-10.733-14.018-19.393-14.018-11.704 0-21.192 10.525-21.192 23.508 0 29.718 40.585 46.13 40.585 46.13s40.185-16.633 40.585-46.13c.177-12.982-9.487-23.508-21.192-23.508z" fill="#ff5492"/><path d="m429.052 7.5c-5.508 0-10.243 3.665-12.335 8.916-2.091-5.251-6.827-8.916-12.335-8.916-7.444 0-13.479 6.694-13.479 14.952 0 18.902 25.814 29.34 25.814 29.34s25.559-10.579 25.813-29.34c.113-8.257-6.034-14.952-13.478-14.952z" fill="#ff91c1"/><path d="m406.553 188.991c-5.508 0-10.243 3.665-12.335 8.916-2.091-5.251-6.827-8.916-12.335-8.916-7.444 0-13.479 6.694-13.479 14.952 0 18.902 25.814 29.34 25.814 29.34s25.559-10.579 25.813-29.34c.113-8.257-6.034-14.952-13.478-14.952z" fill="#ff91c1"/><g><g><g><g><path d="m304.923 120.414c23.481-1.005 41.708-20.398 40.711-43.315-.998-22.917-20.842-40.68-44.323-39.675-1.525.065-3.026.212-4.502.428.435-2.018.652-4.111.558-6.265-.605-13.899-12.64-24.671-26.881-24.062-14.202.608-25.229 12.307-24.689 26.156-4.96-6.115-12.735-9.914-21.334-9.546-13.745.588-24.489 11.573-24.678 24.834-5.598-2.287-11.787-3.44-18.254-3.163-3.56.152-6.996.733-10.266 1.679-1.469-13.065-13.065-22.953-26.719-22.368-8.449.362-15.752 4.665-20.188 10.995-7.984-6.986-18.663-11.052-30.23-10.557-23.481 1.005-41.708 20.398-40.711 43.315.087 2.008.328 3.974.694 5.894-4.231-2.532-9.255-3.901-14.589-3.673-14.242.609-25.296 12.37-24.691 26.269s12.64 24.672 26.881 24.062z" fill="#fff0ca"/><g><g><path d="m272.887 442.893h-185.294c-10.862 0-20.028-8.013-21.39-18.7l-35.791-280.836h299.656l-35.791 280.835c-1.362 10.688-10.528 18.701-21.39 18.701z" fill="#ff5492"/><path d="m290.068 143.357-35.791 280.835c-1.362 10.687-10.528 18.7-21.39 18.7h40c10.862 0 20.028-8.013 21.39-18.7l35.791-280.835z" fill="#fa3e82"/><path d="m225.291 442.893h-90.102l-28.631-299.536h147.364z" fill="#ff91c1"/></g><path d="m334.998 143.489h-309.516c-9.931 0-17.982-8.051-17.982-17.982v-.002c0-9.931 8.051-17.982 17.982-17.982h309.516c9.931 0 17.982 8.051 17.982 17.982v.002c0 9.932-8.051 17.982-17.982 17.982z" fill="#e0efff"/><path d="m334.998 107.524h-40c9.931 0 17.982 8.051 17.982 17.982v.001c0 9.931-8.051 17.982-17.982 17.982h40c9.931 0 17.982-8.051 17.982-17.982v-.001c0-9.931-8.051-17.982-17.982-17.982z" fill="#d4e8ff"/></g></g></g><path d="m218.542 214.666c-17.104 0-31.81 11.382-38.304 27.688-6.495-16.307-21.2-27.688-38.304-27.688-23.118 0-41.858 20.789-41.858 46.433 0 58.698 80.162 91.114 80.162 91.114s79.373-32.853 80.162-91.114c.347-25.642-18.741-46.433-41.858-46.433z" fill="#fff"/></g><g><g><path d="m191.366 489.969h170.414v-66.56h-170.414c-5.177 0-9.374 4.197-9.374 9.374v47.812c0 5.177 4.197 9.374 9.374 9.374z" fill="#54768a"/><g fill="#395a6e"><path d="m262.018 423.409h15v66.56h-15z"/><path d="m218.255 423.409h15v66.56h-15z"/></g><g><path d="m275.561 388.644c0 63.985 51.25 115.856 114.469 115.856s114.47-51.87 114.47-115.856-51.25-115.856-114.469-115.856-114.47 51.871-114.47 115.856zm84.289 0c0-16.843 13.539-30.546 30.181-30.546s30.181 13.703 30.181 30.546-13.539 30.546-30.181 30.546-30.181-13.703-30.181-30.546z" fill="#e0efff"/><g><path d="m390.031 272.788c-6.823 0-13.505.607-20 1.766 53.684 9.575 94.469 57.01 94.469 114.09s-40.786 104.516-94.469 114.09c6.495 1.158 13.177 1.766 20 1.766 63.22 0 114.469-51.87 114.469-115.856s-51.25-115.856-114.469-115.856z" fill="#d4e8ff"/></g><g fill="#fff"><ellipse cx="389.876" cy="315.492" rx="15.265" ry="15.45"/><ellipse cx="441.029" cy="336.807" rx="15.265" ry="15.45"/><ellipse cx="462.307" cy="388.488" rx="15.265" ry="15.45"/><ellipse cx="441.247" cy="440.26" rx="15.265" ry="15.45"/><ellipse cx="390.185" cy="461.796" rx="15.265" ry="15.45"/><ellipse cx="339.033" cy="440.481" rx="15.265" ry="15.45"/><ellipse cx="317.755" cy="388.8" rx="15.265" ry="15.45"/><ellipse cx="338.815" cy="337.028" rx="15.265" ry="15.45"/></g></g></g></g></g></g></g><g><path d="m415.827 127.682c0 34.38 43.425 52.335 45.274 53.083 1.895.737 3.788.729 5.68-.023 1.827-.756 44.754-18.914 45.216-52.958.217-15.991-12.113-31.11-28.692-31.11-7.333 0-14.204 3.003-19.393 8.14-5.189-5.137-12.061-8.14-19.393-8.14-15.82 0-28.692 13.91-28.692 31.008zm41.118-6.715c2.459 6.175 11.477 6.175 13.936 0 2.249-5.646 7.125-9.293 12.425-9.293 8.294 0 13.798 8.223 13.693 15.907-.272 20.057-24.637 33.801-33.099 37.972-8.474-4.146-33.072-17.911-33.072-37.87 0-8.827 6.143-16.008 13.692-16.008 5.299-.001 10.176 3.647 12.425 9.292z"/><path d="m413.906 58.745c1.895.737 3.788.729 5.68-.023 1.23-.509 30.127-12.737 30.445-36.167.156-11.579-9-22.555-20.979-22.555-4.536 0-8.826 1.552-12.334 4.277-3.51-2.725-7.8-4.277-12.335-4.277-11.568 0-20.979 10.072-20.979 22.452 0 23.687 29.256 35.789 30.502 36.293zm-9.523-43.745c2.246 0 4.353 1.645 5.367 4.191 2.459 6.175 11.477 6.175 13.936 0 1.014-2.546 3.121-4.191 5.367-4.191 3.886.659 5.879 3.109 5.979 7.351-.131 9.691-11.441 17.584-18.295 21.144-5.752-2.981-18.333-10.688-18.333-21.042 0-4.04 2.738-7.453 5.979-7.453z"/><path d="m391.407 240.236c1.895.737 3.788.729 5.68-.023 1.23-.509 30.126-12.738 30.444-36.168.156-11.578-9-22.554-20.979-22.554-4.536 0-8.826 1.552-12.334 4.277-3.509-2.726-7.799-4.277-12.334-4.277-11.568 0-20.979 10.072-20.979 22.452 0 23.686 29.257 35.789 30.502 36.293zm-9.523-43.745c2.246 0 4.353 1.645 5.367 4.191 2.459 6.175 11.477 6.175 13.936 0 1.014-2.546 3.121-4.191 5.367-4.191 3.886.659 5.879 3.109 5.979 7.351-.131 9.691-11.441 17.584-18.295 21.145-5.753-2.981-18.333-10.688-18.333-21.043 0-4.041 2.739-7.453 5.979-7.453z"/><path d="m390.031 265.288c-26.411 0-50.886 8.537-70.876 23.022l17.509-137.382c13.276-.862 23.816-11.932 23.816-25.423 0-9.812-5.579-18.341-13.727-22.597 4.544-7.885 6.778-16.865 6.374-26.136-1.122-25.766-22.456-46.076-48.354-46.865-1.483-17.348-16.749-30.633-34.607-29.876-13.329.571-24.542 8.832-29.359 20.221-5.086-2.573-10.821-3.863-16.664-3.611-14.244.61-26.12 9.979-30.275 22.697-5.52-1.159-11.495-1.374-17.096-.643-4.972-12.872-17.982-21.711-32.547-21.073-7.877.337-15.167 3.316-20.853 8.382-8.712-5.606-18.984-8.398-29.565-7.944-13.325.57-25.641 6.181-34.679 15.797-7.874 8.378-12.445 18.919-13.153 30.123-2.222-.351-4.493-.481-6.773-.383-8.855.379-17.044 4.111-23.056 10.508-6.06 6.447-9.187 14.822-8.806 23.581.127 2.931.643 5.781 1.532 8.522-5.427 4.677-8.872 11.592-8.872 19.3 0 13.49 10.54 24.559 23.816 25.421l34.947 274.212c1.834 14.396 14.229 25.252 28.83 25.252h86.899v30.202c0 9.304 7.57 16.874 16.874 16.874h141.285c17.113 9.267 36.649 14.531 57.38 14.531 11.106 0 22.128-1.517 32.76-4.509 9.035-2.543 5.383-17.095-4.063-14.439-9.31 2.62-18.964 3.948-28.697 3.948-58.983 0-106.969-48.608-106.969-108.356s47.986-108.356 106.969-108.356 106.969 48.608 106.969 108.356c0 35.108-16.916 68.196-45.25 88.509-7.628 5.468.765 17.907 8.74 12.19 32.254-23.123 51.51-60.767 51.51-100.699 0-68.019-54.715-123.356-121.969-123.356zm-364.55-129.299c-5.779 0-10.481-4.703-10.481-10.483 0-5.779 4.702-10.481 10.481-10.481h59.512c4.142 0 7.5-3.358 7.5-7.5s-3.358-7.5-7.5-7.5c0 0-61.332.051-62.223.146-3.544-15.342 14.43-26.787 27.488-18.972 5.451 3.262 12.411-1.602 11.218-7.843-1.984-10.396 1.339-21.522 8.58-29.225 6.34-6.746 15.002-10.682 24.391-11.084 9.23-.399 18.101 2.697 24.97 8.708 4.092 2.848 7.786 2.402 11.081-1.34 3.302-4.711 8.539-7.557 14.367-7.806 9.59-.427 17.908 6.492 18.945 15.713.488 4.34 5.041 7.667 9.538 6.367 7.72-2.234 16.137-1.826 23.6 1.222 4.813 1.968 10.261-1.638 10.335-6.836.134-9.37 7.821-17.034 17.5-17.448 5.86-.249 11.542 2.283 15.188 6.778 4.446 5.482 13.594 2.036 13.319-5.017-.378-9.7 7.48-17.941 17.516-18.371 10.101-.434 18.643 7.147 19.067 16.895.061 1.41-.069 2.835-.397 4.358-1.085 5.034 3.322 9.749 8.418 9.001 1.253-.184 2.51-.303 3.736-.355 19.313-.833 35.693 13.755 36.51 32.508.359 8.254-2.322 16.187-7.572 22.6h-205.611c-4.142 0-7.5 3.358-7.5 7.5s3.358 7.5 7.5 7.5h210.041c5.779 0 10.481 4.703 10.481 10.483 0 5.779-4.702 10.481-10.481 10.481h-309.517zm220.177 15-5.868 61.39c-6.577-3.402-13.809-5.214-21.249-5.214-15.095 0-29.076 7.5-38.304 19.896-9.228-12.396-23.209-19.896-38.304-19.896-7.6 0-14.802 1.89-21.239 5.257l-5.872-61.433zm-158.065 284.404c-7.07 0-13.067-5.223-13.95-12.148l-34.698-272.256h60.809l6.922 72.418c-8.714 9.731-14.1 23.034-14.1 37.692 0 22.131 10.038 40.633 23.209 55.393-.079.569-.101 1.153-.044 1.75l11.198 117.151zm130.662 47.076h-26.889c-1.033 0-1.874-.841-1.874-1.874v-47.812c0-1.033.841-1.874 1.874-1.874h26.889zm2.081-66.56h-28.97c-9.304 0-16.874 7.57-16.874 16.874v2.61h-32.486l-9.886-103.422c21.271 17.281 43.529 26.476 45.305 27.194 1.895.737 3.788.729 5.68-.023 1.767-.731 24.03-10.136 45.299-27.64zm-40.136-71.899c-13.763-6.269-72.625-35.846-72.625-82.912 0-21.468 15.413-38.933 34.358-38.933 13.48 0 25.781 9.014 31.336 22.963 2.459 6.175 11.477 6.175 13.936 0 5.556-13.95 17.856-22.963 31.336-22.963 20.349 0 34.619 19.694 34.359 38.832-.632 46.665-59.035 76.638-72.7 83.013zm81.818 138.459h-28.763v-51.56h28.763zm48.923 0h-33.923v-47.446c7.432 18.457 19.159 34.698 33.923 47.446zm-8.764-179.594c-.013.106-.015.211-.024.316-21.099 22.186-34.092 52.312-34.092 85.452 0 9.367 1.043 18.491 3.008 27.265h-35.666l9.593-100.355c12.827-14.617 22.61-32.791 22.903-54.354.191-14.146-4.922-27.849-14.079-37.961l6.906-72.25h60.809z"/><path d="m427.711 388.644c0-20.979-16.903-38.046-37.681-38.046s-37.681 17.067-37.681 38.046 16.903 38.046 37.681 38.046 37.681-17.067 37.681-38.046zm-37.68 23.046c-12.506 0-22.681-10.338-22.681-23.046s10.174-23.046 22.681-23.046 22.681 10.338 22.681 23.046-10.175 23.046-22.681 23.046z"/><path d="m412.641 315.492c0-12.654-10.212-22.95-22.765-22.95s-22.765 10.295-22.765 22.95 10.212 22.95 22.765 22.95 22.765-10.295 22.765-22.95zm-30.53 0c0-4.383 3.483-7.95 7.765-7.95 4.281 0 7.765 3.566 7.765 7.95s-3.483 7.95-7.765 7.95c-4.281 0-7.765-3.566-7.765-7.95z"/><path d="m441.029 313.857c-6.06 0-11.869 2.455-16.13 6.754-8.823 8.93-8.823 23.461 0 32.392 8.703 8.807 23.535 8.828 32.259 0 8.823-8.93 8.823-23.461 0-32.392-4.304-4.355-10.032-6.754-16.129-6.754zm5.459 28.604c-3.639 3.062-7.279 3.062-10.918 0-3.08-3.118-3.08-8.19 0-11.308 3.639-3.062 7.278-3.062 10.917 0 3.08 3.118 3.08 8.191.001 11.308z"/><path d="m439.542 388.488c0 12.654 10.212 22.95 22.765 22.95 12.552 0 22.765-10.295 22.765-22.95s-10.212-22.95-22.765-22.95-22.765 10.295-22.765 22.95zm22.765-7.95c4.281 0 7.765 3.566 7.765 7.95s-3.483 7.95-7.765 7.95-7.765-3.566-7.765-7.95 3.483-7.95 7.765-7.95z"/><path d="m457.376 424.063c-8.702-8.807-23.535-8.83-32.258 0-8.824 8.931-8.824 23.462 0 32.393 8.82 8.927 23.438 8.926 32.258 0 8.824-8.931 8.824-23.462 0-32.393zm-10.67 21.85c-3.639 3.062-7.279 3.062-10.918 0-3.08-3.117-3.08-8.189 0-11.307 3.639-3.062 7.278-3.062 10.917 0 3.081 3.118 3.081 8.19.001 11.307z"/><path d="m367.42 461.796c0 12.654 10.212 22.95 22.765 22.95s22.765-10.295 22.765-22.95-10.212-22.95-22.765-22.95-22.765 10.295-22.765 22.95zm30.53 0c0 4.383-3.483 7.95-7.765 7.95s-7.765-3.566-7.765-7.95 3.483-7.95 7.765-7.95 7.765 3.566 7.765 7.95z"/><path d="m339.033 463.431c6.098 0 11.826-2.399 16.128-6.754 8.824-8.931 8.824-23.462 0-32.393-4.303-4.355-10.031-6.753-16.128-6.753-6.059.014-11.87 2.443-16.13 6.754-8.823 8.93-8.823 23.461 0 32.392 4.304 4.355 10.032 6.754 16.13 6.754zm-5.459-28.604c3.639-3.062 7.279-3.062 10.918 0 3.08 3.117 3.08 8.189 0 11.307-2.779 2.779-8.194 2.758-10.917 0-3.081-3.117-3.081-8.19-.001-11.307z"/><path d="m294.99 388.8c0 12.654 10.212 22.95 22.765 22.95s22.765-10.295 22.765-22.95-10.212-22.95-22.765-22.95c-12.553.001-22.765 10.296-22.765 22.95zm22.764-7.949c4.282 0 7.765 3.566 7.765 7.95s-3.483 7.95-7.765 7.95c-4.281 0-7.765-3.566-7.765-7.95s3.484-7.95 7.765-7.95z"/><path d="m338.815 359.979c6.098 0 11.826-2.399 16.128-6.754 8.824-8.931 8.824-23.462 0-32.393-4.303-4.355-10.031-6.753-16.128-6.753-6.058.013-11.87 2.443-16.129 6.753-8.824 8.931-8.824 23.462 0 32.393 4.303 4.355 10.031 6.754 16.129 6.754zm-5.46-28.604c3.639-3.062 7.279-3.062 10.918 0 3.08 3.117 3.08 8.189 0 11.307-3.639 3.062-7.278 3.062-10.917 0-3.081-3.118-3.081-8.19-.001-11.307z"/></g></g></svg>